# xmcd
#
# Track frame offsets:
# 150
# 29139
# 44103
# 71126
# 96529
# 111785
# 129014
# 144178
# 159532
# 224990
# 232737
#
# Disc length: 3598 seconds
#
#
# Revision: 0
# Processed by: cddbd v1.5.2PL0 Copyright (c) Steve Scherf et al.
# Submitted via: FreeRIP 2.945 
#
DISCID=a70e0c0b
DTITLE=The Doors - Dallas Memorial Auditorium (9.7.1968)
DYEAR=1968
DGENRE=Blues
TTITLE0=Soul Kitchen
TTITLE1=Back Door Man
TTITLE2=Five to One
TTITLE3=Break on Through (to the other Side)
TTITLE4=The Cristal Ship
TTITLE5=The Wasp - Hello i Love you
TTITLE6=Moonlight Drive
TTITLE7=Money
TTITLE8=When the Musik´s over
TTITLE9=Wake Up
TTITLE10=Light my Fire
EXTD=
EXTT0=
EXTT1=
EXTT2=
EXTT3=
EXTT4=
EXTT5=
EXTT6=
EXTT7=
EXTT8=
EXTT9=
EXTT10=
PLAYORDER=
